<?xml version="1.0" encoding="utf-8"?>
<svg xmlns="http://www.w3.org/2000/svg" data-name="Layer 1" id="Layer_1" viewBox="0 0 500 91.76">
  <defs>
    <style>
      .cls-1 {
        fill: #075056;
      }
    </style>
  </defs>
  <g>
    <path class="cls-1" d="M16.88,1L.59,11.24l37.49,22.59c2.08,1.25,3.35,3.51,3.35,5.94v45.31l17.59-11.75V29.89c0-2.45-1.29-4.72-3.4-5.97L16.88,1.01h0Z"/>
    <path class="cls-1" d="M27.54,41.61l-14.45-8.58v35.03l5.74,3.43.09-15.48,9.59,5.9c.57.35,1.3-.06,1.3-.73v-15.58c0-1.64-.86-3.16-2.27-3.99h0Z"/>
  </g>
  <g>
    <path class="cls-1" d="M86.71,73.17V26.35h24.15c3.88,0,7.23.64,10.07,1.94,2.83,1.29,5.01,3.13,6.52,5.52,1.51,2.39,2.28,5.23,2.28,8.53s-.76,6.15-2.28,8.56c-1.51,2.4-3.69,4.27-6.52,5.58-2.83,1.32-6.19,1.97-10.07,1.97h-12.38v14.71h-11.77ZM98.48,48.76h11.91c1.51,0,2.82-.25,3.91-.77,1.09-.51,1.94-1.24,2.54-2.17s.9-2.07.9-3.41-.29-2.48-.87-3.44c-.58-.96-1.42-1.69-2.51-2.21s-2.4-.77-3.91-.77h-11.97v12.78h0Z"/>
    <path class="cls-1" d="M134.87,73.17V26.35h37.66v10.03h-25.88v8.56h21.07v9.43h-21.07v8.76h26.82v10.03h-38.59Z"/>
    <path class="cls-1" d="M178.77,73.17V26.35h24.48c3.88,0,7.23.64,10.03,1.94,2.81,1.29,4.99,3.13,6.52,5.52,1.54,2.39,2.31,5.25,2.31,8.6s-.79,6.03-2.38,8.33c-1.58,2.3-3.93,4.07-7.06,5.32l10.83,17.12h-13.71l-9.09-14.71h-10.17v14.71h-11.77,0ZM190.55,48.76h12.17c2.36,0,4.19-.57,5.48-1.7,1.29-1.13,1.94-2.69,1.94-4.65s-.65-3.64-1.94-4.75-3.1-1.67-5.42-1.67h-12.24v12.78h0Z"/>
    <path class="cls-1" d="M227.97,73.17V26.35h36.92v10.03h-25.15v9.03h21.2v9.37h-21.2v18.39h-11.77Z"/>
    <path class="cls-1" d="M270.13,73.17V26.35h11.77v46.82h-11.77Z"/>
    <path class="cls-1" d="M313.49,73.57c-5.35,0-10-.99-13.94-2.98-3.95-1.98-7-4.76-9.16-8.33-2.16-3.57-3.25-7.73-3.25-12.5s1.11-8.87,3.34-12.44c2.23-3.57,5.39-6.36,9.46-8.36,4.08-2,8.82-3.01,14.21-3.01,4.46,0,8.44.73,11.94,2.21s6.36,3.53,8.59,6.19c2.23,2.65,3.55,5.74,3.95,9.26h-11.84c-.63-2.45-2.06-4.38-4.31-5.79s-5.08-2.11-8.46-2.11c-2.99,0-5.59.57-7.82,1.7-2.23,1.13-3.96,2.77-5.18,4.88s-1.84,4.61-1.84,7.46.6,5.4,1.81,7.49,2.9,3.71,5.08,4.85c2.18,1.13,4.79,1.7,7.82,1.7,3.43,0,6.29-.7,8.56-2.11,2.28-1.41,3.72-3.33,4.35-5.79h11.84c-.4,3.52-1.75,6.61-4.05,9.26-2.3,2.65-5.25,4.71-8.86,6.19s-7.69,2.21-12.24,2.21h.02Z"/>
    <path class="cls-1" d="M342.94,73.17V26.35h11.77v46.82h-11.77Z"/>
    <path class="cls-1" d="M361.25,73.17V26.35h37.66v10.03h-25.88v8.56h21.07v9.43h-21.07v8.76h26.82v10.03h-38.59Z"/>
    <path class="cls-1" d="M404.48,73.17V26.35h10.7l24.28,28.16v-28.16h11.51v46.82h-10.7l-24.28-28.16v28.16h-11.51Z"/>
    <path class="cls-1" d="M471.31,73.17v-36.79h-16.32v-10.03h44.41v10.03h-16.32v36.79h-11.77Z"/>
  </g>
</svg>